Coordinates
version=1
nRows=27
nColumns=12
inDegrees=yes

Units are S.I. units (second, meters, Newtons, ...)
Angles are in degrees

endheader
time	SC_y	SC_z	SC_x	AC_y	AC_z	AC_x	GH_y	GH_z	GH_yy	EL_x	PS_y
       0.0              -15.35          24.69          18.68          41.06         -14.96          16.54         -5.007          70.85         -109.5          107.7          156.8
   0.01929              -15.35           24.7          18.68          41.07         -14.96          16.53         -4.983          70.85         -109.4          107.7          156.8
   0.03858              -15.35           24.7          18.68          41.07         -14.96          16.53         -4.956          70.85         -109.4          107.7          156.7
   0.05787              -15.35           24.7          18.68          41.07         -14.96          16.53         -4.928          70.85         -109.4          107.7          156.7
   0.07715              -15.36           24.7          18.68          41.08         -14.96          16.52         -4.898          70.85         -109.4          107.7          156.7
   0.09644              -15.36           24.7          18.68          41.08         -14.96          16.52         -4.866          70.85         -109.4          107.7          156.7
    0.1157              -15.36          24.71          18.68          41.09         -14.96          16.51         -4.832          70.85         -109.4          107.7          156.7
     0.135              -15.36          24.71          18.68          41.09         -14.96          16.51         -4.796          70.84         -109.3          107.7          156.7
    0.1543              -15.36          24.71          18.68           41.1         -14.96           16.5         -4.757          70.84         -109.3          107.7          156.7
    0.1736              -15.36          24.72          18.68           41.1         -14.96           16.5         -4.715          70.84         -109.3          107.7          156.7
    0.1929              -15.36          24.72          18.68          41.11         -14.96          16.49          -4.67          70.84         -109.3          107.7          156.7
    0.2122              -15.37          24.72          18.67          41.11         -14.96          16.49         -4.622          70.84         -109.3          107.7          156.7
    0.2315              -15.37          24.73          18.67          41.12         -14.96          16.48          -4.57          70.83         -109.2          107.7          156.7
    0.2508              -15.37          24.73          18.67          41.13         -14.96          16.47         -4.513          70.83         -109.2          107.7          156.7
      0.27              -15.37          24.74          18.67          41.14         -14.96          16.47         -4.453          70.83         -109.2          107.7          156.7
    0.2893              -15.37          24.74          18.67          41.14         -14.96          16.46         -4.387          70.82         -109.1          107.7          156.7
    0.3086              -15.38          24.75          18.67          41.15         -14.96          16.45         -4.315          70.82         -109.1          107.7          156.6
    0.3279              -15.38          24.75          18.66          41.16         -14.96          16.44         -4.237          70.82         -109.1          107.7          156.6
    0.3472              -15.38          24.76          18.66          41.17         -14.96          16.43         -4.151          70.81         -109.0          107.7          156.6
    0.3665              -15.39          24.77          18.66          41.19         -14.96          16.42         -4.058          70.81         -109.0          107.7          156.6
    0.3858              -15.39          24.78          18.66           41.2         -14.96           16.4         -3.955           70.8         -108.9          107.7          156.6
    0.4051              -15.39          24.79          18.65          41.21         -14.96          16.39         -3.842           70.8         -108.9          107.7          156.6
    0.4244               -15.4           24.8          18.65          41.23         -14.96          16.37         -3.717          70.79         -108.8          107.7          156.6
    0.4436               -15.4          24.81          18.65          41.25         -14.96          16.36         -3.579          70.78         -108.7          107.7          156.5
    0.4629              -15.41          24.82          18.64          41.27         -14.96          16.34         -3.425          70.78         -108.6          107.7          156.5
    0.4822              -15.42          24.83          18.64          41.29         -14.96          16.32         -3.254          70.77         -108.6          107.7          156.5
    0.5015              -15.42          24.85          18.63          41.32         -14.96          16.29         -3.062          70.76         -108.5          107.7          156.5
